<svg width="18" height="18" viewBox="0 0 18 18" fill="none" xmlns="http://www.w3.org/2000/svg">
<path d="M6.64062 0C5.66719 0 4.83672 0.4365 4.19922 1.0545C3.85156 0.9255 3.52188 0.75 3.125 0.75C1.40625 0.75 0 2.1 0 3.75C0 4.52025 0.326563 5.20875 0.830469 5.742C0.798863 5.82468 0.782217 5.91194 0.78125 6V15.75C0.78125 16.9837 1.83984 18 3.125 18H12.5C13.7852 18 14.8438 16.9837 14.8438 15.75V14.25H15.625C16.9102 14.25 17.9688 13.2337 17.9688 12V9C17.9688 7.76625 16.9102 6.75 15.625 6.75H14.8438V5.859C14.8498 5.80466 14.8498 5.74984 14.8438 5.6955C15.3203 5.16825 15.625 4.497 15.625 3.75C15.625 2.1 14.2188 0.75 12.5 0.75C11.9172 0.75 11.4016 0.9495 10.9375 1.21875C10.4734 0.94875 9.95781 0.75 9.375 0.75C9.17344 0.75 9.01563 0.8085 8.8375 0.84375C8.23125 0.35475 7.49609 0 6.64062 0ZM6.64062 1.5C7.21406 1.5 7.71797 1.749 8.08125 2.133L8.42266 2.484L8.91094 2.34375C9.08594 2.28825 9.22656 2.25 9.375 2.25C9.775 2.25 10.1406 2.40225 10.425 2.64825L10.9375 3.09375L11.45 2.64825C11.7361 2.39463 12.1106 2.25262 12.5 2.25C13.3727 2.25 14.0625 2.91225 14.0625 3.75C14.0625 4.58775 13.3727 5.25 12.5 5.25C11.6328 5.25 10.3758 4.89825 10.3758 4.89825L9.375 4.617V5.625C9.375 6.6765 9.60937 7.47975 9.81484 8.08575C10.0187 8.6925 10.1562 9.07875 10.1562 9.375C10.1562 10.005 9.64062 10.5 8.98438 10.5C8.32813 10.5 7.8125 10.005 7.8125 9.375C7.8125 9.07875 7.95 8.66925 8.15469 8.0625C8.35859 7.45575 8.59375 6.67125 8.59375 5.625V4.28925L7.42188 4.992C7.42188 4.992 7.28125 5.0595 7.10469 5.133C6.9568 5.19359 6.80044 5.23301 6.64062 5.25C6.1525 5.24969 5.68212 5.0742 5.32188 4.758L4.76094 4.266L4.24844 4.78125C4.03422 4.99885 3.75681 5.1496 3.45222 5.21394C3.14762 5.27828 2.82992 5.25323 2.54034 5.14205C2.25077 5.03087 2.00269 4.83869 1.82832 4.59046C1.65395 4.34222 1.56134 4.0494 1.5625 3.75C1.5625 2.91225 2.25234 2.25 3.125 2.25C3.44219 2.25 3.72891 2.35275 3.97969 2.508L4.61406 2.883L5.05391 2.2965C5.23114 2.05003 5.46823 1.84871 5.74469 1.70993C6.02115 1.57116 6.32865 1.4991 6.64062 1.5V1.5ZM4.83359 6.1875C5.36797 6.507 5.96641 6.75 6.64062 6.75C6.72266 6.75 6.75938 6.7125 6.83594 6.70275C6.77187 6.993 6.775 7.365 6.68906 7.61775C6.50313 8.16825 6.25 8.6955 6.25 9.375C6.25 10.8165 7.48281 12 8.98438 12C10.4859 12 11.7188 10.8165 11.7188 9.375C11.7188 8.6955 11.4656 8.16525 11.2789 7.617C11.1789 7.3185 11.1508 6.897 11.0836 6.53925C11.5844 6.65025 11.8102 6.75 12.5 6.75C12.7688 6.75 13.0313 6.6945 13.2812 6.633V7.266C13.2356 7.41101 13.2356 7.56574 13.2812 7.71075V13.359C13.2598 13.4597 13.2598 13.5635 13.2812 13.6642V15.75C13.2812 16.1745 12.9422 16.5 12.5 16.5H3.125C2.68281 16.5 2.34375 16.1745 2.34375 15.75V6.633C2.59375 6.6945 2.85625 6.75 3.125 6.75C3.76875 6.75 4.33594 6.51 4.83437 6.1875H4.83359ZM14.8438 8.25H15.625C16.0672 8.25 16.4062 8.5755 16.4062 9V12C16.4062 12.4245 16.0672 12.75 15.625 12.75H14.8438V8.25Z" fill="#E8F0FE"/>
</svg>
