<svg width="25" height="20" viewBox="0 0 25 20" fill="none" xmlns="http://www.w3.org/2000/svg">
<path d="M23.9297 0.588235H6.63399C6.50368 0.588235 6.39706 0.694118 6.39706 0.823529V2.47059C6.39706 2.6 6.50368 2.70588 6.63399 2.70588H23.9297C24.06 2.70588 24.1667 2.6 24.1667 2.47059V0.823529C24.1667 0.694118 24.06 0.588235 23.9297 0.588235ZM23.9297 8.94118H6.63399C6.50368 8.94118 6.39706 9.04706 6.39706 9.17647V10.8235C6.39706 10.9529 6.50368 11.0588 6.63399 11.0588H23.9297C24.06 11.0588 24.1667 10.9529 24.1667 10.8235V9.17647C24.1667 9.04706 24.06 8.94118 23.9297 8.94118ZM23.9297 17.2941H6.63399C6.50368 17.2941 6.39706 17.4 6.39706 17.5294V19.1765C6.39706 19.3059 6.50368 19.4118 6.63399 19.4118H23.9297C24.06 19.4118 24.1667 19.3059 24.1667 19.1765V17.5294C24.1667 17.4 24.06 17.2941 23.9297 17.2941ZM0 1.64706C-3.24543e-09 1.86335 0.0428984 2.07753 0.126246 2.27736C0.209593 2.47719 0.331757 2.65876 0.485762 2.81171C0.639768 2.96465 0.822599 3.08597 1.02382 3.16874C1.22504 3.25151 1.4407 3.29412 1.6585 3.29412C1.87629 3.29412 2.09196 3.25151 2.29318 3.16874C2.49439 3.08597 2.67722 2.96465 2.83123 2.81171C2.98524 2.65876 3.1074 2.47719 3.19075 2.27736C3.27409 2.07753 3.31699 1.86335 3.31699 1.64706C3.31699 1.43076 3.27409 1.21659 3.19075 1.01676C3.1074 0.816926 2.98524 0.635356 2.83123 0.482412C2.67722 0.329469 2.49439 0.208147 2.29318 0.125375C2.09196 0.0426023 1.87629 0 1.6585 0C1.4407 0 1.22504 0.0426023 1.02382 0.125375C0.822599 0.208147 0.639768 0.329469 0.485762 0.482412C0.331757 0.635356 0.209593 0.816926 0.126246 1.01676C0.0428984 1.21659 -3.24543e-09 1.43076 0 1.64706ZM0 10C-3.24543e-09 10.2163 0.0428984 10.4305 0.126246 10.6303C0.209593 10.8301 0.331757 11.0117 0.485762 11.1646C0.639768 11.3176 0.822599 11.4389 1.02382 11.5217C1.22504 11.6045 1.4407 11.6471 1.6585 11.6471C1.87629 11.6471 2.09196 11.6045 2.29318 11.5217C2.49439 11.4389 2.67722 11.3176 2.83123 11.1646C2.98524 11.0117 3.1074 10.8301 3.19075 10.6303C3.27409 10.4305 3.31699 10.2163 3.31699 10C3.31699 9.78371 3.27409 9.56953 3.19075 9.3697C3.1074 9.16987 2.98524 8.9883 2.83123 8.83535C2.67722 8.68241 2.49439 8.56109 2.29318 8.47832C2.09196 8.39554 1.87629 8.35294 1.6585 8.35294C1.4407 8.35294 1.22504 8.39554 1.02382 8.47832C0.822599 8.56109 0.639768 8.68241 0.485762 8.83535C0.331757 8.9883 0.209593 9.16987 0.126246 9.3697C0.0428984 9.56953 -3.24543e-09 9.78371 0 10ZM0 18.3529C-3.24543e-09 18.5692 0.0428984 18.7834 0.126246 18.9832C0.209593 19.1831 0.331757 19.3646 0.485762 19.5176C0.639768 19.6705 0.822599 19.7919 1.02382 19.8746C1.22504 19.9574 1.4407 20 1.6585 20C1.87629 20 2.09196 19.9574 2.29318 19.8746C2.49439 19.7919 2.67722 19.6705 2.83123 19.5176C2.98524 19.3646 3.1074 19.1831 3.19075 18.9832C3.27409 18.7834 3.31699 18.5692 3.31699 18.3529C3.31699 18.1366 3.27409 17.9225 3.19075 17.7226C3.1074 17.5228 2.98524 17.3412 2.83123 17.1883C2.67722 17.0354 2.49439 16.914 2.29318 16.8313C2.09196 16.7485 1.87629 16.7059 1.6585 16.7059C1.4407 16.7059 1.22504 16.7485 1.02382 16.8313C0.822599 16.914 0.639768 17.0354 0.485762 17.1883C0.331757 17.3412 0.209593 17.5228 0.126246 17.7226C0.0428984 17.9225 -3.24543e-09 18.1366 0 18.3529Z" fill="black"/>
</svg>
